<svg xmlns="http://www.w3.org/2000/svg" width="512" height="512" enable-background="new 0 0 512 512" viewBox="0 0 512 512"><path d="M256.315,494.293L256.315,494.293c-2.831,0-5.497-1.332-7.196-3.596L138.399,343.271
				c-2.985-3.975-2.183-9.616,1.792-12.601c3.975-2.984,9.618-2.184,12.601,1.792l103.524,137.845l103.557-137.846
				c2.984-3.975,8.627-4.776,12.601-1.79c3.975,2.985,4.776,8.627,1.79,12.601L263.511,490.698
				C261.811,492.962,259.145,494.293,256.315,494.293z"/><path d="M256.315,494.293c-4.971,0-9-4.029-9-9V26.192c0-4.971,4.029-9,9-9c4.97,0,9,4.029,9,9v459.101
				C265.314,490.264,261.285,494.293,256.315,494.293z"/></svg>